<?xml version="1.0" encoding="utf-8"?>
<!-- Generator: Adobe Illustrator 16.0.0, SVG Export Plug-In . SVG Version: 6.00 Build 0)  -->
<!DOCTYPE svg PUBLIC "-//W3C//DTD SVG 1.1//EN" "http://www.w3.org/Graphics/SVG/1.1/DTD/svg11.dtd">
<svg version="1.1" id="bg" xmlns="http://www.w3.org/2000/svg" xmlns:xlink="http://www.w3.org/1999/xlink" x="0px" y="0px"
	 width="4500px" height="4500px" viewBox="0 0 4500 4500" enable-background="new 0 0 4500 4500" xml:space="preserve">
<rect fill="#FFFFFF" width="4500" height="4500"/>
<path fill="#353535" d="M3550.703,1079.378H949.286c-130.454,0-236.59,106.127-236.59,236.578v1734.299
	c0,10.937,8.865,19.794,19.795,19.794h3035.004c10.935,0,19.797-8.857,19.797-19.794V1315.956
	C3787.293,1185.505,3681.158,1079.378,3550.703,1079.378z"/>
<path fill="#FFFFFF" d="M3493.025,1197.68H995.651c-127.658,0-182.126,50.522-182.126,168.932v316.994v1366.649
	c0,10.937,8.862,19.794,19.796,19.794h2833.352c10.938,0,19.798-8.857,19.798-19.794V1683.606v-316.994
	C3686.471,1215.19,3576.067,1197.68,3493.025,1197.68z"/>
<path fill="#4F4F4F" d="M3998.406,3030.479H501.594c-10.931,0-19.796,8.861-19.796,19.796
	c0,248.612,248.188,251.485,250.694,251.485h3035.004c2.507,0,250.706-2.873,250.706-251.485
	C4018.202,3039.34,4009.34,3030.479,3998.406,3030.479z"/>
<g>
	<path fill="#EB1C24" d="M1535.394,1863.536c0-11.184-3.896-20.172-11.685-26.963c-7.789-6.791-21.471-13.183-41.044-19.174
		c-33.555-10.118-59.021-22.037-76.398-35.752c-17.376-13.713-26.065-32.423-26.065-56.125c0-23.833,9.787-43.308,29.362-58.421
		c19.573-15.111,44.54-22.67,74.898-22.67c32.223,0,58.153,8.123,77.796,24.368c19.64,16.246,29.126,37.549,28.461,63.914
		l-0.398,1.199h-56.524c0-14.512-4.396-25.666-13.183-33.455c-8.788-7.79-21.106-11.686-36.95-11.686
		c-14.381,0-25.5,3.464-33.355,10.387c-7.858,6.926-11.783,15.779-11.783,26.564c0,9.855,4.259,17.945,12.782,24.267
		c8.519,6.326,23.233,13.017,44.141,20.073c31.957,9.057,56.325,20.872,73.102,35.452c16.777,14.58,25.166,33.79,25.166,57.624
		c0,24.9-9.722,44.54-29.161,58.92c-19.442,14.381-45.14,21.571-77.097,21.571c-31.292,0-58.156-7.79-80.591-23.369
		c-22.439-15.579-33.325-38.814-32.657-69.707l0.4-1.198h56.524c0,17.177,5.059,29.829,15.179,37.949
		c10.118,8.124,23.834,12.184,41.145,12.184c15.579,0,27.463-3.261,35.652-9.787
		C1531.298,1883.179,1535.394,1874.457,1535.394,1863.536z"/>
	<path fill="#39B34A" d="M1851.921,1811.606h-107.856v83.089h128.229v44.74h-186.551v-290.809h186.151v44.939h-127.83v73.102
		h107.856V1811.606z"/>
	<path fill="#FFF000" d="M2113.921,1876.719h-94.274l-19.573,62.715h-60.919l98.069-290.809h59.719l97.67,290.809h-60.917
		L2113.921,1876.719z M2034.028,1830.98h65.712l-32.156-102.462h-1.198L2034.028,1830.98z"/>
	<path fill="#1C75BA" d="M2329.983,1823.191v116.244h-58.321v-290.809h100.665c33.155,0,59.087,7.558,77.797,22.669
		c18.706,15.114,28.06,36.186,28.06,63.215c0,14.915-3.962,27.798-11.882,38.648c-7.925,10.854-19.475,19.608-34.655,26.266
		c17.178,5.063,29.527,13.517,37.053,25.366c7.519,11.853,11.282,26.499,11.282,43.941v21.371c0,8.123,1.1,16.612,3.296,25.465
		c2.198,8.857,5.959,15.415,11.286,19.674v4.194h-60.119c-5.328-4.26-8.757-11.315-10.287-21.171
		c-1.532-9.853-2.298-19.374-2.298-28.562v-20.572c0-14.512-3.963-25.798-11.882-33.856c-7.926-8.054-19.144-12.083-33.656-12.083
		H2329.983z M2329.983,1778.25h41.345c16.377,0,28.563-3.46,36.551-10.386c7.99-6.922,11.983-17.176,11.983-30.758
		c0-13.314-4.027-23.899-12.084-31.758c-8.057-7.855-19.872-11.784-35.451-11.784h-42.344V1778.25z"/>
	<path fill="#ED4136" d="M2799.506,1843.164l0.399,1.198c0.531,31.027-8.923,55.326-28.363,72.903
		c-19.442,17.576-46.271,26.364-80.49,26.364c-34.888,0-63.051-11.216-84.487-33.654c-21.44-22.437-32.157-51.432-32.157-86.984
		v-57.723c0-35.417,10.452-64.413,31.357-86.983c20.903-22.569,48.337-33.854,82.291-33.854c35.418,0,63.116,8.657,83.088,25.965
		c19.974,17.311,29.691,41.678,29.16,73.102l-0.398,1.198h-56.724c0-18.641-4.494-32.522-13.483-41.645
		c-8.986-9.118-22.868-13.681-41.643-13.681c-17.446,0-31.058,7.025-40.847,21.071c-9.786,14.05-14.68,32.191-14.68,54.427v58.122
		c0,22.37,5.158,40.614,15.48,54.727c10.316,14.116,24.666,21.172,43.042,21.172c17.442,0,30.458-4.56,39.047-13.682
		c8.589-9.118,12.883-23.134,12.883-42.043H2799.506z"/>
	<path fill="#2BB473" d="M3125.82,1939.435h-58.322v-120.837h-118.44v120.837h-58.323v-290.809h58.323v125.031h118.44v-125.031
		h58.322V1939.435z"/>
</g>
<g>
	<g>
		<path fill="#EBEBED" d="M3354.195,2588.831c0,4.175-4.128,7.558-9.217,7.558H1155.022c-5.091,0-9.218-3.383-9.218-7.558v-229.425
			c0-4.175,4.127-7.559,9.218-7.559h2189.956c5.089,0,9.217,3.384,9.217,7.559V2588.831z"/>
		<g>
			<path fill="#6D6E71" d="M1247.032,2488.354l1.35,7.503h0.324l1.403-7.503l11.659-37.135h8.527l11.713,37.135l1.512,8.367h0.323
				l1.727-8.367l8.637-37.135h11.118l-16.949,58.402h-8.582l-11.55-35.57l-2.212-9.284h-0.325l-2.051,9.284l-11.334,35.57h-8.583
				l-16.947-58.402h11.065L1247.032,2488.354z"/>
			<path fill="#6D6E71" d="M1326.376,2459.045c2.015-2.808,4.488-4.993,7.422-6.559c2.931-1.564,6.179-2.347,9.742-2.347
				c6.225,0,11.074,1.871,14.546,5.612c3.472,3.743,5.208,9.5,5.208,17.272v36.597h-10.633v-36.705c0-4.82-1.035-8.384-3.103-10.686
				c-2.07-2.303-5.156-3.455-9.257-3.455c-3.167,0-5.919,0.62-8.259,1.862c-2.34,1.241-4.228,2.978-5.667,5.208v43.775h-10.634
				v-84.203h10.634V2459.045z"/>
			<path fill="#6D6E71" d="M1414.464,2509.621c-0.36-1.764-0.639-3.32-0.837-4.67s-0.315-2.707-0.351-4.075
				c-1.979,2.808-4.56,5.154-7.745,7.044c-3.184,1.889-6.612,2.834-10.282,2.834c-6.082,0-10.714-1.557-13.899-4.669
				c-3.185-3.113-4.777-7.403-4.777-12.874c0-5.577,2.258-9.939,6.774-13.089c4.516-3.148,10.642-4.723,18.379-4.723h11.55v-5.774
				c0-3.419-1.044-6.127-3.13-8.124c-2.088-1.997-5.039-2.995-8.853-2.995c-3.454,0-6.243,0.862-8.365,2.59
				c-2.124,1.727-3.186,3.797-3.186,6.208l-10.093,0.107l-0.108-0.324c-0.251-4.245,1.735-8.131,5.964-11.658
				c4.228-3.525,9.689-5.289,16.382-5.289c6.62,0,11.946,1.682,15.976,5.047s6.045,8.213,6.045,14.545v28.122
				c0,2.088,0.108,4.102,0.324,6.045c0.216,1.944,0.612,3.851,1.188,5.723H1414.464z M1396.814,2501.847
				c3.85,0,7.322-0.989,10.417-2.969c3.094-1.978,5.108-4.245,6.044-6.8v-9.499h-11.929c-4.282,0-7.71,1.079-10.282,3.237
				c-2.573,2.159-3.858,4.696-3.858,7.611c0,2.59,0.81,4.642,2.429,6.153C1391.255,2501.092,1393.648,2501.847,1396.814,2501.847z"
				/>
			<path fill="#6D6E71" d="M1454.136,2437.131v14.088h11.065v7.881h-11.065v35.462c0,2.733,0.566,4.66,1.701,5.775
				c1.133,1.115,2.635,1.672,4.506,1.672c0.611,0,1.295-0.08,2.051-0.242s1.386-0.331,1.89-0.513l1.458,7.286
				c-0.792,0.648-1.961,1.179-3.508,1.593c-1.548,0.413-3.077,0.621-4.588,0.621c-4.318,0-7.755-1.305-10.31-3.914
				c-2.556-2.607-3.832-6.701-3.832-12.278V2459.1h-9.284v-7.881h9.284v-14.088H1454.136z"/>
			<path fill="#6D6E71" d="M1539.957,2509.621c-0.36-1.764-0.639-3.32-0.837-4.67s-0.315-2.707-0.351-4.075
				c-1.979,2.808-4.561,5.154-7.746,7.044c-3.184,1.889-6.612,2.834-10.282,2.834c-6.083,0-10.715-1.557-13.899-4.669
				c-3.185-3.113-4.777-7.403-4.777-12.874c0-5.577,2.258-9.939,6.774-13.089c4.516-3.148,10.642-4.723,18.379-4.723h11.551v-5.774
				c0-3.419-1.044-6.127-3.131-8.124c-2.086-1.997-5.038-2.995-8.852-2.995c-3.455,0-6.244,0.862-8.366,2.59
				c-2.124,1.727-3.185,3.797-3.185,6.208l-10.093,0.107l-0.108-0.324c-0.252-4.245,1.736-8.131,5.965-11.658
				c4.229-3.525,9.688-5.289,16.381-5.289c6.62,0,11.946,1.682,15.976,5.047s6.045,8.213,6.045,14.545v28.122
				c0,2.088,0.108,4.102,0.324,6.045c0.217,1.944,0.611,3.851,1.188,5.723H1539.957z M1522.308,2501.847
				c3.85,0,7.321-0.989,10.417-2.969c3.094-1.978,5.11-4.245,6.045-6.8v-9.499h-11.929c-4.281,0-7.709,1.079-10.282,3.237
				c-2.573,2.159-3.859,4.696-3.859,7.611c0,2.59,0.81,4.642,2.429,6.153C1516.749,2501.092,1519.14,2501.847,1522.308,2501.847z"/>
			<path fill="#6D6E71" d="M1592.475,2460.61l-5.452-0.324c-2.807,0-5.173,0.666-7.099,1.997c-1.925,1.332-3.409,3.203-4.452,5.613
				v41.725h-10.634v-58.402h9.5l1.026,8.528c1.655-3.022,3.697-5.38,6.125-7.071c2.43-1.691,5.228-2.536,8.394-2.536
				c0.791,0,1.547,0.063,2.267,0.188c0.72,0.128,1.314,0.263,1.782,0.405L1592.475,2460.61z"/>
			<path fill="#6D6E71" d="M1626.696,2510.754c-8.386,0-14.924-2.68-19.62-8.042c-4.696-5.362-7.044-12.415-7.044-21.159v-2.375
				c0-8.384,2.419-15.32,7.26-20.808c4.839-5.486,10.75-8.23,17.73-8.23c7.809,0,13.665,2.429,17.57,7.287
				c3.903,4.856,5.856,11.315,5.856,19.376v5.613h-37.352l-0.161,0.27c0,5.866,1.295,10.625,3.886,14.277
				c2.591,3.652,6.549,5.479,11.875,5.479c3.597,0,6.755-0.513,9.472-1.538c2.717-1.025,5.046-2.438,6.99-4.237l4.156,6.909
				c-2.087,2.015-4.841,3.715-8.258,5.1C1635.637,2510.061,1631.517,2510.754,1626.696,2510.754z M1625.021,2458.506
				c-3.705,0-6.773,1.43-9.203,4.291c-2.428,2.86-3.914,6.521-4.452,10.983l0.107,0.271h26.34v-0.864
				c0-4.246-1.044-7.754-3.131-10.525C1632.596,2459.892,1629.375,2458.506,1625.021,2458.506z"/>
			<path fill="#6D6E71" d="M1705.715,2487.976l1.89,7.341h0.323l14.358-44.098h11.821l-24.56,67.361
				c-1.476,3.922-3.588,7.34-6.342,10.255c-2.753,2.915-6.468,4.373-11.146,4.373c-0.863,0-1.96-0.101-3.292-0.298
				s-2.357-0.387-3.077-0.566l1.08-8.366c-0.217-0.035,0.422,0,1.917,0.107c1.492,0.108,2.436,0.163,2.833,0.163
				c2.266,0,4.119-1.009,5.559-3.022c1.439-2.016,2.645-4.247,3.617-6.693l2.537-6.1l-21.698-57.214h11.875L1705.715,2487.976z"/>
			<path fill="#6D6E71" d="M1740.152,2479.88c0-8.637,2.338-15.752,7.016-21.349c4.678-5.594,11.029-8.392,19.053-8.392
				c8.096,0,14.492,2.788,19.188,8.366c4.696,5.577,7.045,12.703,7.045,21.374v1.188c0,8.708-2.34,15.833-7.018,21.374
				c-4.678,5.542-11.046,8.313-19.107,8.313c-8.061,0-14.439-2.779-19.134-8.34c-4.695-5.559-7.043-12.676-7.043-21.347V2479.88z
				 M1750.784,2481.067c0,6.189,1.304,11.299,3.913,15.329c2.609,4.03,6.485,6.045,11.632,6.045c5.073,0,8.924-2.015,11.55-6.045
				c2.627-4.03,3.94-9.14,3.94-15.329v-1.188c0-6.117-1.322-11.209-3.967-15.275c-2.646-4.065-6.523-6.099-11.632-6.099
				c-5.074,0-8.915,2.033-11.524,6.099c-2.609,4.066-3.913,9.158-3.913,15.275V2481.067z"/>
			<path fill="#6D6E71" d="M1842.542,2500.984c-1.835,3.131-4.193,5.542-7.071,7.233c-2.879,1.69-6.207,2.536-9.985,2.536
				c-6.37,0-11.335-2.033-14.897-6.1c-3.563-4.066-5.343-10.398-5.343-19v-34.436h10.633v34.544c0,6.227,0.918,10.508,2.752,12.848
				c1.836,2.339,4.696,3.508,8.582,3.508c3.779,0,6.899-0.765,9.365-2.294c2.464-1.53,4.327-3.698,5.587-6.505v-42.101h10.632
				v58.402h-9.553L1842.542,2500.984z"/>
			<path fill="#6D6E71" d="M1907.26,2509.621h-10.633v-84.203h10.633V2509.621z"/>
			<path fill="#6D6E71" d="M1921.13,2479.88c0-8.637,2.338-15.752,7.017-21.349c4.677-5.594,11.029-8.392,19.053-8.392
				c8.097,0,14.492,2.788,19.189,8.366c4.696,5.577,7.042,12.703,7.042,21.374v1.188c0,8.708-2.338,15.833-7.016,21.374
				c-4.678,5.542-11.047,8.313-19.107,8.313c-8.062,0-14.439-2.779-19.135-8.34c-4.696-5.559-7.043-12.676-7.043-21.347V2479.88z
				 M1931.764,2481.067c0,6.189,1.304,11.299,3.913,15.329c2.609,4.03,6.486,6.045,11.632,6.045c5.074,0,8.923-2.015,11.549-6.045
				c2.627-4.03,3.941-9.14,3.941-15.329v-1.188c0-6.117-1.324-11.209-3.967-15.275c-2.645-4.065-6.523-6.099-11.632-6.099
				c-5.073,0-8.915,2.033-11.524,6.099c-2.608,4.066-3.913,9.158-3.913,15.275V2481.067z"/>
			<path fill="#6D6E71" d="M1983.958,2479.88c0-8.637,2.338-15.752,7.017-21.349c4.677-5.594,11.029-8.392,19.053-8.392
				c8.096,0,14.492,2.788,19.188,8.366c4.696,5.577,7.045,12.703,7.045,21.374v1.188c0,8.708-2.34,15.833-7.018,21.374
				c-4.677,5.542-11.046,8.313-19.107,8.313s-14.438-2.779-19.134-8.34c-4.696-5.559-7.044-12.676-7.044-21.347V2479.88z
				 M1994.591,2481.067c0,6.189,1.304,11.299,3.913,15.329s6.485,6.045,11.632,6.045c5.073,0,8.925-2.015,11.551-6.045
				c2.626-4.03,3.941-9.14,3.941-15.329v-1.188c0-6.117-1.323-11.209-3.967-15.275c-2.646-4.065-6.523-6.099-11.633-6.099
				c-5.073,0-8.915,2.033-11.523,6.099c-2.609,4.066-3.913,9.158-3.913,15.275V2481.067z"/>
			<path fill="#6D6E71" d="M2065.407,2482.686h-5.452v26.936h-10.632v-84.203h10.632v48.794h5.344l17.542-22.993h12.738
				l-21.212,26.935l23.048,31.468h-12.577L2065.407,2482.686z"/>
			<path fill="#6D6E71" d="M2117.44,2436.268h-10.633v-10.85h10.633V2436.268z M2117.44,2509.621h-10.633v-58.402h10.633V2509.621z"
				/>
			<path fill="#6D6E71" d="M2143.293,2451.219l0.755,8.69c1.945-3.095,4.381-5.497,7.314-7.206c2.933-1.708,6.27-2.563,10.012-2.563
				c6.298,0,11.173,1.845,14.627,5.532c3.456,3.689,5.183,9.383,5.183,17.082v36.867h-10.633v-36.649
				c0-5.146-1.018-8.799-3.049-10.958c-2.034-2.159-5.136-3.238-9.311-3.238c-3.274,0-6.054,0.656-8.339,1.971
				c-2.285,1.313-4.093,3.156-5.424,5.531v43.344h-10.633v-58.402H2143.293z"/>
			<path fill="#6D6E71" d="M2194.731,2481.499c0-9.392,2.006-16.967,6.019-22.724c4.012-5.757,9.615-8.636,16.813-8.636
				c3.706,0,6.962,0.747,9.771,2.239c2.806,1.493,5.161,3.644,7.069,6.45l1.295-7.61h8.474v58.725
				c0,7.484-2.177,13.232-6.531,17.246c-4.354,4.012-10.633,6.019-18.836,6.019c-2.808,0-5.839-0.388-9.095-1.16
				c-3.258-0.775-6.126-1.827-8.609-3.158l1.619-8.259c2.052,1.08,4.525,1.952,7.423,2.618c2.896,0.665,5.747,0.999,8.555,0.999
				c5.181,0,8.95-1.18,11.307-3.536s3.536-5.946,3.536-10.769v-6.638c-1.908,2.446-4.193,4.301-6.856,5.56
				c-2.663,1.259-5.739,1.889-9.229,1.889c-7.125,0-12.693-2.582-16.706-7.746c-4.013-5.164-6.019-11.955-6.019-20.375V2481.499z
				 M2205.364,2482.633c0,5.864,1.206,10.578,3.617,14.141c2.41,3.563,6.134,5.345,11.172,5.345c3.203,0,5.885-0.729,8.043-2.187
				c2.16-1.458,3.939-3.517,5.343-6.181v-26.88c-1.369-2.482-3.149-4.453-5.343-5.91c-2.195-1.457-4.841-2.186-7.935-2.186
				c-5.074,0-8.824,2.104-11.253,6.315c-2.43,4.209-3.645,9.68-3.645,16.408V2482.633z"/>
			<path fill="#6D6E71" d="M2291.349,2509.621V2459.1h-9.122v-7.881h9.122v-7.395c0-6.226,1.627-11.038,4.884-14.439
				c3.256-3.399,7.799-5.1,13.628-5.1c1.225,0,2.456,0.099,3.699,0.297c1.239,0.197,2.616,0.478,4.128,0.836l-1.295,8.097
				c-0.646-0.144-1.432-0.271-2.347-0.378c-0.918-0.107-1.882-0.161-2.89-0.161c-3.094,0-5.397,0.927-6.908,2.779
				c-1.512,1.853-2.267,4.543-2.267,8.069v7.395h10.578v7.881h-10.578v50.521H2291.349z"/>
			<path fill="#6D6E71" d="M2320.818,2479.88c0-8.637,2.339-15.752,7.017-21.349c4.677-5.594,11.03-8.392,19.053-8.392
				c8.097,0,14.492,2.788,19.188,8.366c4.696,5.577,7.044,12.703,7.044,21.374v1.188c0,8.708-2.34,15.833-7.016,21.374
				c-4.68,5.542-11.047,8.313-19.107,8.313c-8.062,0-14.438-2.779-19.137-8.34c-4.694-5.559-7.042-12.676-7.042-21.347V2479.88z
				 M2331.452,2481.067c0,6.189,1.302,11.299,3.911,15.329c2.611,4.03,6.487,6.045,11.634,6.045c5.073,0,8.923-2.015,11.551-6.045
				c2.626-4.03,3.939-9.14,3.939-15.329v-1.188c0-6.117-1.321-11.209-3.968-15.275c-2.645-4.065-6.522-6.099-11.632-6.099
				c-5.073,0-8.913,2.033-11.524,6.099c-2.609,4.066-3.911,9.158-3.911,15.275V2481.067z"/>
			<path fill="#6D6E71" d="M2413.765,2460.61l-5.453-0.324c-2.807,0-5.173,0.666-7.097,1.997c-1.927,1.332-3.41,3.203-4.453,5.613
				v41.725h-10.634v-58.402h9.5l1.025,8.528c1.655-3.022,3.697-5.38,6.125-7.071c2.429-1.691,5.228-2.536,8.394-2.536
				c0.792,0,1.547,0.063,2.267,0.188c0.721,0.128,1.313,0.263,1.783,0.405L2413.765,2460.61z"/>
			<path fill="#6D6E71" d="M2436.272,2487.489c0.035-5.216,0.486-8.833,1.349-10.848c0.863-2.016,3.131-4.679,6.801-7.989
				c3.563-4.209,6.099-7.448,7.61-9.715c1.512-2.268,2.268-5.002,2.268-8.205c0-3.813-1.018-6.746-3.05-8.797
				c-2.033-2.052-4.938-3.077-8.718-3.077c-3.274,0-6.064,0.891-8.366,2.671c-2.303,1.782-3.455,4.4-3.455,7.854h-10.146
				l-0.162-0.324c-0.108-5.793,1.935-10.436,6.127-13.926c4.191-3.489,9.525-5.235,16.003-5.235c7.089,0,12.596,1.809,16.517,5.425
				c3.922,3.615,5.885,8.663,5.885,15.141c0,4.641-1.27,8.888-3.808,12.737c-2.536,3.851-5.891,7.791-10.066,11.821
				c-1.942,1.942-3.122,3.688-3.535,5.235c-0.414,1.547-0.619,3.958-0.619,7.231H2436.272z M2447.282,2509.621h-11.12v-11.229h11.12
				V2509.621z"/>
		</g>
		<path fill="none" stroke="#6D6E71" stroke-width="3" stroke-miterlimit="10" d="M3354.195,2588.831
			c0,4.175-4.128,7.558-9.217,7.558H1155.022c-5.091,0-9.218-3.383-9.218-7.558v-229.425c0-4.175,4.127-7.559,9.218-7.559h2189.956
			c5.089,0,9.217,3.384,9.217,7.559V2588.831z"/>
	</g>
	<g>
		<circle fill="#6D6E71" cx="3164.242" cy="2434.383" r="60.343"/>
		<path fill="#6D6E71" d="M3164.345,2496.32c-21.928,0-43.204-11.65-54.45-32.207c-7.941-14.517-9.754-31.257-5.104-47.136
			c4.651-15.88,15.206-28.999,29.722-36.941c14.515-7.941,31.257-9.753,47.137-5.104c15.881,4.648,29,15.203,36.94,29.722l0,0
			c7.94,14.516,9.754,31.256,5.104,47.136c-4.649,15.881-15.205,28.999-29.722,36.939
			C3184.561,2493.878,3174.384,2496.32,3164.345,2496.32z M3164.16,2375.617c-9.722,0-19.342,2.439-28.109,7.234
			c-13.764,7.529-23.773,19.97-28.181,35.027c-4.409,15.057-2.688,30.931,4.84,44.694c15.544,28.413,51.308,38.886,79.721,23.342
			c13.766-7.53,23.772-19.968,28.183-35.027c4.408-15.058,2.69-30.931-4.84-44.695l0,0c-7.529-13.765-19.97-23.773-35.027-28.182
			C3175.278,2376.41,3169.703,2375.617,3164.16,2375.617z"/>
		<g>
			<g>
				<circle fill="#EBEBED" cx="3164.242" cy="2434.385" r="49.891"/>
			</g>
		</g>
		<path fill="#A5A5A5" d="M3164.313,2486.973c-4.961,0-9.95-0.71-14.841-2.143c-13.476-3.944-24.608-12.9-31.348-25.22
			c-6.736-12.317-8.275-26.522-4.33-39.998c3.945-13.473,12.902-24.605,25.219-31.343c12.318-6.739,26.525-8.278,39.997-4.334
			c13.476,3.945,24.608,12.902,31.347,25.222l0,0c6.737,12.318,8.276,26.522,4.331,39.996c-3.945,13.475-12.901,24.606-25.22,31.345
			C3181.624,2484.789,3173.014,2486.973,3164.313,2486.973z M3164.178,2387.145c-7.814,0-15.55,1.961-22.598,5.816
			c-11.064,6.052-19.109,16.052-22.653,28.155c-3.543,12.104-2.161,24.862,3.892,35.929c6.053,11.063,16.052,19.109,28.156,22.653
			c12.105,3.545,24.863,2.161,35.929-3.892c11.063-6.055,19.108-16.053,22.653-28.155c3.542-12.104,2.161-24.862-3.892-35.926l0,0
			c-6.053-11.067-16.052-19.113-28.156-22.656C3173.115,2387.782,3168.633,2387.145,3164.178,2387.145z"/>
		<path fill="#6D6E71" d="M3223.917,2552.842c-3.26,0-6.422-1.731-8.092-4.785l-31.017-56.696c-0.222-0.404-0.258-0.885-0.101-1.318
			c0.156-0.432,0.492-0.776,0.923-0.945c2.316-0.91,4.606-1.981,6.8-3.182l0,0c2.204-1.208,4.342-2.558,6.347-4.012
			c0.375-0.271,0.845-0.367,1.295-0.267c0.449,0.102,0.834,0.392,1.056,0.795l31.017,56.698c1.18,2.157,1.449,4.644,0.758,7.004
			s-2.26,4.311-4.416,5.489l-0.164,0.09C3226.923,2552.479,3225.409,2552.842,3223.917,2552.842z"/>
		<path fill="#A5A5A5" d="M3188.485,2491.394l30.155,55.122c1.586,2.902,5.239,3.972,8.139,2.385l0.162-0.09
			c1.408-0.771,2.432-2.04,2.881-3.578c0.451-1.538,0.275-3.157-0.494-4.563l-30.153-55.122c-1.674,1.137-3.418,2.204-5.203,3.182
			l0,0C3192.191,2489.703,3190.351,2490.596,3188.485,2491.394z"/>
		<path fill="#6D6E71" d="M3193.202,2487.321h0.003H3193.202z"/>
		<path fill="#231F20" d="M3209.146,2516.659c-3.574,1.955-7.222,3.657-10.92,5.107l27.114,49.563
			c3.151,5.759,10.37,7.873,16.129,4.721l0.261-0.141c5.758-3.149,7.871-10.37,4.723-16.129l-27.113-49.564
			C3216.123,2512.548,3212.725,2514.703,3209.146,2516.659z"/>
		<path fill="#6D6E71" d="M3235.789,2579.112c-4.773,0-9.406-2.536-11.857-7.012l-27.112-49.564
			c-0.222-0.404-0.257-0.885-0.101-1.317c0.156-0.434,0.492-0.777,0.922-0.947c3.644-1.429,7.259-3.118,10.738-5.021
			c3.466-1.896,6.837-4.026,10.02-6.332c0.373-0.27,0.845-0.366,1.294-0.266c0.449,0.102,0.835,0.392,1.055,0.795l27.112,49.563
			c1.729,3.162,2.125,6.806,1.113,10.265c-1.014,3.457-3.313,6.313-6.475,8.044l-0.261,0.143
			C3240.189,2578.581,3237.976,2579.112,3235.789,2579.112z M3200.5,2522.579l26.248,47.981c1.317,2.408,3.494,4.16,6.129,4.932
			c2.637,0.771,5.415,0.471,7.823-0.849l0.263-0.143c2.405-1.316,4.159-3.493,4.929-6.128c0.771-2.636,0.472-5.413-0.848-7.823
			l-26.246-47.979c-2.85,1.982-5.829,3.825-8.88,5.497c0,0,0,0-0.002,0C3206.856,2519.74,3203.695,2521.254,3200.5,2522.579z
			 M3209.146,2516.659h0.006H3209.146z"/>
		<path opacity="0.3" fill="#A5A5A5" d="M3193.574,2465.383c-0.688,0-1.379-0.247-1.925-0.747c-1.165-1.065-1.247-2.871-0.183-4.034
			c6.081-6.652,9.432-15.284,9.432-24.305c0-10.844-4.817-21.009-13.217-27.889c-1.219-0.998-1.398-2.798-0.4-4.018
			c1.001-1.22,2.799-1.398,4.02-0.4c9.729,7.97,15.308,19.744,15.308,32.307c0,10.45-3.88,20.449-10.926,28.157
			C3195.119,2465.07,3194.348,2465.383,3193.574,2465.383z"/>
	</g>
</g>
<path fill="#353535" d="M3767.496,3301.76c2.114,0,179.138-2.046,234.409-152.015H526.366c-10.932,0-19.796,8.861-19.796,19.796
	c0,0.065,0.001,0.129,0.001,0.193c62.889,130.165,223.904,132.025,225.92,132.025H3767.496z"/>
</svg>
