<?xml version="1.0" encoding="UTF-8" standalone="no"?>
<svg
   xmlns:dc="http://purl.org/dc/elements/1.1/"
   xmlns:cc="http://creativecommons.org/ns#"
   xmlns:rdf="http://www.w3.org/1999/02/22-rdf-syntax-ns#"
   xmlns:svg="http://www.w3.org/2000/svg"
   xmlns="http://www.w3.org/2000/svg"
   xmlns:sodipodi="http://sodipodi.sourceforge.net/DTD/sodipodi-0.dtd"
   xmlns:inkscape="http://www.inkscape.org/namespaces/inkscape"
   viewBox="0 0 175 320"
   height="320"
   width="175"
   xml:space="preserve"
   version="1.1"
   id="svg4041"
   inkscape:version="0.91 r13725"
   sodipodi:docname="android_smartphone-5G.svg"><sodipodi:namedview
     pagecolor="#ffffff"
     bordercolor="#666666"
     borderopacity="1"
     objecttolerance="10"
     gridtolerance="10"
     guidetolerance="10"
     inkscape:pageopacity="0"
     inkscape:pageshadow="2"
     inkscape:window-width="1916"
     inkscape:window-height="1035"
     id="namedview11814"
     showgrid="false"
     inkscape:zoom="4.4572189"
     inkscape:cx="125.17881"
     inkscape:cy="277.27083"
     inkscape:window-x="4"
     inkscape:window-y="1"
     inkscape:window-maximized="1"
     inkscape:current-layer="svg4041" /><metadata
     id="metadata4047"><rdf:RDF><cc:Work
         rdf:about=""><dc:format>image/svg+xml</dc:format><dc:type
           rdf:resource="http://purl.org/dc/dcmitype/StillImage" /><dc:title /></cc:Work></rdf:RDF></metadata><defs
     id="defs4045"><clipPath
       id="clipPath4055"
       clipPathUnits="userSpaceOnUse"><path
         id="path4057"
         d="M 0,256 140,256 140,0 0,0 0,256 Z" /></clipPath></defs><g
     id="g12563"><g
       transform="matrix(1.171875,0,0,-1.171875,87.5,310)"
       id="g4059"><path
         id="path4061"
         style="fill:#000000;fill-opacity:1;fill-rule:nonzero;stroke:none"
         d="m 0,0 c -16.994,0 -33.024,1.072 -45.136,3.019 -12.401,1.993 -23.877,5.029 -23.877,13.678 l 0,222.606 c 0,8.649 11.476,11.685 23.877,13.678 C -33.023,254.928 -16.993,256 0,256 c 16.993,0 33.023,-1.072 45.136,-3.019 12.401,-1.993 23.877,-5.029 23.877,-13.678 l 0,-222.606 C 69.013,8.048 57.537,5.012 45.136,3.019 33.024,1.072 16.994,0 0,0"
         inkscape:connector-curvature="0" /></g><g
       transform="matrix(1.171875,0,0,-1.171875,87.5,17.82707)"
       id="g4063"><path
         id="path4065"
         style="fill:#33322a;fill-opacity:1;fill-rule:nonzero;stroke:none"
         d="m 0,0 c -34.426,0 -62.334,-4.485 -62.334,-10.018 l 0,-222.607 c 0,-5.533 27.908,-10.018 62.334,-10.018 34.426,0 62.334,4.485 62.334,10.018 l 0,222.607 C 62.334,-4.485 34.426,0 0,0"
         inkscape:connector-curvature="0" /></g><g
       transform="matrix(1.171875,0,0,-1.171875,92.500273,28.327305)"
       id="g4067"><path
         id="path4069"
         style="fill:#000000;fill-opacity:1;fill-rule:nonzero;stroke:none"
         d="m 0,0 c 0,-2.357 -1.91,-4.267 -4.267,-4.267 -2.356,0 -4.267,1.91 -4.267,4.267 0,2.357 1.911,4.267 4.267,4.267 C -1.91,4.267 0,2.357 0,0"
         inkscape:connector-curvature="0" /></g><path
       id="path4071"
       style="fill:#107d8f;fill-opacity:1;fill-rule:nonzero;stroke:none"
       d="m 153.37344,268.70195 -131.746878,0 0,-229.577341 131.746878,0 0,229.577341 z"
       inkscape:connector-curvature="0" /><g
       transform="matrix(1.171875,0,0,-1.171875,153.3732,268.70219)"
       id="g4073"><path
         id="path4075"
         style="fill:#28a7ae;fill-opacity:1;fill-rule:nonzero;stroke:none"
         d="m 0,0 -112.424,0 0,49.431 L 0,118.444 0,0 Z"
         inkscape:connector-curvature="0" /></g><g
       transform="matrix(1.171875,0,0,-1.171875,153.3732,268.70219)"
       id="g4077"><path
         id="path4079"
         style="fill:#56c4bf;fill-opacity:1;fill-rule:nonzero;stroke:none"
         d="m 0,0 -112.424,0 0,40.526 L 0,75.589 0,0 Z"
         inkscape:connector-curvature="0" /></g><path
       id="path4081"
       style="fill:#87bec7;fill-opacity:1;fill-rule:nonzero;stroke:none"
       d="m 145.0168,77.072266 -117.397269,0 0,-18.261328 117.397269,0 0,18.261328 z"
       inkscape:connector-curvature="0" /><path
       id="path4083"
       style="fill:#87bec7;fill-opacity:1;fill-rule:nonzero;stroke:none"
       d="m 144.31016,51.309766 -22.82696,0 0,-6.685547 22.82696,0 0,6.685547 z"
       inkscape:connector-curvature="0" /><g
       transform="matrix(1.171875,0,0,-1.171875,89.76418,264.03871)"
       id="g4085"><path
         id="path4087"
         style="fill:#aae1df;fill-opacity:1;fill-rule:nonzero;stroke:none"
         d="m 0,0 -3.864,0 c -0.829,0 -1.5,0.672 -1.5,1.5 l 0,3.864 c 0,0.829 0.671,1.5 1.5,1.5 l 3.864,0 c 0.828,0 1.5,-0.671 1.5,-1.5 L 1.5,1.5 C 1.5,0.672 0.828,0 0,0"
         inkscape:connector-curvature="0" /></g><g
       transform="matrix(1.171875,0,0,-1.171875,55.84918,264.03871)"
       id="g4089"><path
         id="path4091"
         style="fill:#aae1df;fill-opacity:1;fill-rule:nonzero;stroke:none"
         d="m 0,0 -3.864,0 c -0.829,0 -1.5,0.672 -1.5,1.5 l 0,3.864 c 0,0.829 0.671,1.5 1.5,1.5 l 3.864,0 c 0.828,0 1.5,-0.671 1.5,-1.5 L 1.5,1.5 C 1.5,0.672 0.828,0 0,0"
         inkscape:connector-curvature="0" /></g><g
       transform="matrix(1.171875,0,0,-1.171875,123.67906,264.03871)"
       id="g4093"><path
         id="path4095"
         style="fill:#aae1df;fill-opacity:1;fill-rule:nonzero;stroke:none"
         d="m 0,0 -3.864,0 c -0.829,0 -1.5,0.672 -1.5,1.5 l 0,3.864 c 0,0.829 0.671,1.5 1.5,1.5 l 3.864,0 c 0.828,0 1.5,-0.671 1.5,-1.5 L 1.5,1.5 C 1.5,0.672 0.828,0 0,0"
         inkscape:connector-curvature="0" /></g><g
       transform="matrix(1.171875,0,0,-1.171875,95.122695,236.75453)"
       id="g4097"><path
         id="path4099"
         style="fill:#ffffff;fill-opacity:1;fill-rule:nonzero;stroke:none"
         d="m 0,0 c 0,-3.535 -2.866,-6.4 -6.4,-6.4 -3.535,0 -6.401,2.865 -6.401,6.4 0,3.535 2.866,6.4 6.401,6.4 C -2.866,6.4 0,3.535 0,0"
         inkscape:connector-curvature="0" /></g><g
       transform="matrix(1.171875,0,0,-1.171875,45.711406,243.2766)"
       id="g4101"><path
         id="path4103"
         style="fill:#34a853;fill-opacity:1;fill-rule:nonzero;stroke:none"
         d="m 0,0 -7.131,0 c -1.105,0 -2,0.895 -2,2 l 0,7.131 c 0,1.105 0.895,2 2,2 l 7.131,0 c 1.105,0 2,-0.895 2,-2 L 2,2 C 2,0.895 1.105,0 0,0"
         inkscape:connector-curvature="0" /></g><g
       transform="matrix(1.171875,0,0,-1.171875,68.755977,243.2766)"
       id="g4105"><path
         id="path4107"
         style="fill:#4285f4;fill-opacity:1;fill-rule:nonzero;stroke:none"
         d="m 0,0 -7.131,0 c -1.105,0 -2,0.895 -2,2 l 0,7.131 c 0,1.105 0.895,2 2,2 l 7.131,0 c 1.105,0 2,-0.895 2,-2 L 2,2 C 2,0.895 1.105,0 0,0"
         inkscape:connector-curvature="0" /></g><g
       transform="matrix(1.171875,0,0,-1.171875,114.84523,243.2766)"
       id="g4109"><path
         id="path4111"
         style="fill:#fbbc05;fill-opacity:1;fill-rule:nonzero;stroke:none"
         d="m 0,0 -7.131,0 c -1.105,0 -2,0.895 -2,2 l 0,7.131 c 0,1.105 0.895,2 2,2 l 7.131,0 c 1.105,0 2,-0.895 2,-2 L 2,2 C 2,0.895 1.105,0 0,0"
         inkscape:connector-curvature="0" /></g><g
       transform="matrix(1.171875,0,0,-1.171875,137.88992,243.2766)"
       id="g4113"><path
         id="path4115"
         style="fill:#ea4335;fill-opacity:1;fill-rule:nonzero;stroke:none"
         d="m 0,0 -7.131,0 c -1.105,0 -2,0.895 -2,2 l 0,7.131 c 0,1.105 0.895,2 2,2 l 7.131,0 c 1.105,0 2,-0.895 2,-2 L 2,2 C 2,0.895 1.105,0 0,0"
         inkscape:connector-curvature="0" /></g><g
       transform="matrix(1.171875,0,0,-1.171875,45.711406,212.34566)"
       id="g4117"><path
         id="path4119"
         style="fill:#ffffff;fill-opacity:1;fill-rule:nonzero;stroke:none"
         d="m 0,0 -7.131,0 c -1.105,0 -2,0.895 -2,2 l 0,7.131 c 0,1.105 0.895,2 2,2 l 7.131,0 c 1.105,0 2,-0.895 2,-2 L 2,2 C 2,0.895 1.105,0 0,0"
         inkscape:connector-curvature="0" /></g><g
       transform="matrix(1.171875,0,0,-1.171875,68.755977,212.34566)"
       id="g4121"><path
         id="path4123"
         style="fill:#ea4335;fill-opacity:1;fill-rule:nonzero;stroke:none"
         d="m 0,0 -7.131,0 c -1.105,0 -2,0.895 -2,2 l 0,7.131 c 0,1.105 0.895,2 2,2 l 7.131,0 c 1.105,0 2,-0.895 2,-2 L 2,2 C 2,0.895 1.105,0 0,0"
         inkscape:connector-curvature="0" /></g><g
       transform="matrix(1.171875,0,0,-1.171875,114.84523,212.34566)"
       id="g4125"><path
         id="path4127"
         style="fill:#4285f4;fill-opacity:1;fill-rule:nonzero;stroke:none"
         d="m 0,0 -7.131,0 c -1.105,0 -2,0.895 -2,2 l 0,7.131 c 0,1.105 0.895,2 2,2 l 7.131,0 c 1.105,0 2,-0.895 2,-2 L 2,2 C 2,0.895 1.105,0 0,0"
         inkscape:connector-curvature="0" /></g><g
       transform="matrix(1.171875,0,0,-1.171875,91.800664,212.34566)"
       id="g4129"><path
         id="path4131"
         style="fill:#fbbc05;fill-opacity:1;fill-rule:nonzero;stroke:none"
         d="m 0,0 -7.131,0 c -1.105,0 -2,0.895 -2,2 l 0,7.131 c 0,1.105 0.895,2 2,2 l 7.131,0 c 1.105,0 2,-0.895 2,-2 L 2,2 C 2,0.895 1.105,0 0,0"
         inkscape:connector-curvature="0" /></g><g
       transform="matrix(1.171875,0,0,-1.171875,137.88992,212.34566)"
       id="g4133"><path
         id="path4135"
         style="fill:#34a853;fill-opacity:1;fill-rule:nonzero;stroke:none"
         d="m 0,0 -7.131,0 c -1.105,0 -2,0.895 -2,2 l 0,7.131 c 0,1.105 0.895,2 2,2 l 7.131,0 c 1.105,0 2,-0.895 2,-2 L 2,2 C 2,0.895 1.105,0 0,0"
         inkscape:connector-curvature="0" /></g><g
       transform="matrix(1.171875,0,0,-1.171875,45.711406,184.95285)"
       id="g4137"><path
         id="path4139"
         style="fill:#4285f4;fill-opacity:1;fill-rule:nonzero;stroke:none"
         d="m 0,0 -7.131,0 c -1.105,0 -2,0.895 -2,2 l 0,7.131 c 0,1.105 0.895,2 2,2 l 7.131,0 c 1.105,0 2,-0.895 2,-2 L 2,2 C 2,0.895 1.105,0 0,0"
         inkscape:connector-curvature="0" /></g><g
       transform="matrix(1.171875,0,0,-1.171875,68.755977,184.95285)"
       id="g4141"><path
         id="path4143"
         style="fill:#fbbc05;fill-opacity:1;fill-rule:nonzero;stroke:none"
         d="m 0,0 -7.131,0 c -1.105,0 -2,0.895 -2,2 l 0,7.131 c 0,1.105 0.895,2 2,2 l 7.131,0 c 1.105,0 2,-0.895 2,-2 L 2,2 C 2,0.895 1.105,0 0,0"
         inkscape:connector-curvature="0" /></g><g
       transform="matrix(1.171875,0,0,-1.171875,114.84523,184.95285)"
       id="g4145"><path
         id="path4147"
         style="fill:#ea4335;fill-opacity:1;fill-rule:nonzero;stroke:none"
         d="m 0,0 -7.131,0 c -1.105,0 -2,0.895 -2,2 l 0,7.131 c 0,1.105 0.895,2 2,2 l 7.131,0 c 1.105,0 2,-0.895 2,-2 L 2,2 C 2,0.895 1.105,0 0,0"
         inkscape:connector-curvature="0" /></g><g
       transform="matrix(1.171875,0,0,-1.171875,91.800664,184.95285)"
       id="g4149"><path
         id="path4151"
         style="fill:#ffffff;fill-opacity:1;fill-rule:nonzero;stroke:none"
         d="m 0,0 -7.131,0 c -1.105,0 -2,0.895 -2,2 l 0,7.131 c 0,1.105 0.895,2 2,2 l 7.131,0 c 1.105,0 2,-0.895 2,-2 L 2,2 C 2,0.895 1.105,0 0,0"
         inkscape:connector-curvature="0" /></g><g
       transform="matrix(1.171875,0,0,-1.171875,137.88992,184.95285)"
       id="g4153"><path
         id="path4155"
         style="fill:#ffffff;fill-opacity:1;fill-rule:nonzero;stroke:none"
         d="m 0,0 -7.131,0 c -1.105,0 -2,0.895 -2,2 l 0,7.131 c 0,1.105 0.895,2 2,2 l 7.131,0 c 1.105,0 2,-0.895 2,-2 L 2,2 C 2,0.895 1.105,0 0,0"
         inkscape:connector-curvature="0" /></g><g
       transform="matrix(1.171875,0,0,-1.171875,45.711406,157.56004)"
       id="g4157"><path
         id="path4159"
         style="fill:#ea4335;fill-opacity:1;fill-rule:nonzero;stroke:none"
         d="m 0,0 -7.131,0 c -1.105,0 -2,0.895 -2,2 l 0,7.131 c 0,1.105 0.895,2 2,2 l 7.131,0 c 1.105,0 2,-0.895 2,-2 L 2,2 C 2,0.895 1.105,0 0,0"
         inkscape:connector-curvature="0" /></g><g
       transform="matrix(1.171875,0,0,-1.171875,137.88992,157.56004)"
       id="g4161"><path
         id="path4163"
         style="fill:#fbbc05;fill-opacity:1;fill-rule:nonzero;stroke:none"
         d="m 0,0 -7.131,0 c -1.105,0 -2,0.895 -2,2 l 0,7.131 c 0,1.105 0.895,2 2,2 l 7.131,0 c 1.105,0 2,-0.895 2,-2 L 2,2 C 2,0.895 1.105,0 0,0"
         inkscape:connector-curvature="0" /></g><g
       transform="matrix(1.171875,0,0,-1.171875,59.033164,92.636992)"
       id="g4165"><path
         id="path4167"
         style="fill:#ffffff;fill-opacity:1;fill-rule:nonzero;stroke:none"
         d="m 0,0 c -0.553,0 -1.002,-0.449 -1.002,-1.002 l 0,-12.244 0,-12.245 c 0,-0.553 0.449,-1.002 1.002,-1.002 0.553,0 1.002,0.449 1.002,1.002 l 0,12.245 0,12.244 C 1.002,-0.449 0.553,0 0,0"
         inkscape:connector-curvature="0" /></g><g
       transform="matrix(1.171875,0,0,-1.171875,76.882227,119.89984)"
       id="g4169"><path
         id="path4171"
         style="fill:#ffffff;fill-opacity:1;fill-rule:nonzero;stroke:none"
         d="m 0,0 c 0,-0.675 -0.549,-1.224 -1.225,-1.224 l -6.678,0 c -0.675,0 -1.225,0.549 -1.225,1.224 l 0,20.036 c 0,0.675 0.55,1.224 1.225,1.224 l 6.678,0 C -0.549,21.26 0,20.711 0,20.036 L 0,0 Z m -1.225,23.264 -6.678,0 c -1.78,0 -3.228,-1.449 -3.228,-3.228 l 0,-20.036 c 0,-1.779 1.448,-3.228 3.228,-3.228 l 6.678,0 c 1.78,0 3.228,1.449 3.228,3.228 l 0,20.036 c 0,1.779 -1.448,3.228 -3.228,3.228"
         inkscape:connector-curvature="0" /></g><g
       transform="matrix(1.171875,0,0,-1.171875,83.654727,100.68133)"
       id="g4173"><path
         id="path4175"
         style="fill:#ffffff;fill-opacity:1;fill-rule:nonzero;stroke:none"
         d="m 0,0 c -0.553,0 -1.002,-0.449 -1.002,-1.002 l 0,-3.154 c 0,-0.553 0.449,-1.002 1.002,-1.002 0.553,0 1.002,0.449 1.002,1.002 l 0,3.154 C 1.002,-0.449 0.553,0 0,0"
         inkscape:connector-curvature="0" /></g><g
       transform="matrix(1.171875,0,0,-1.171875,83.654727,109.59566)"
       id="g4177"><path
         id="path4179"
         style="fill:#ffffff;fill-opacity:1;fill-rule:nonzero;stroke:none"
         d="m 0,0 c -0.553,0 -1.002,-0.449 -1.002,-1.002 l 0,-3.154 c 0,-0.553 0.449,-1.002 1.002,-1.002 0.553,0 1.002,0.449 1.002,1.002 l 0,3.154 C 1.002,-0.449 0.553,0 0,0"
         inkscape:connector-curvature="0" /></g><g
       transform="matrix(1.171875,0,0,-1.171875,102.2975,92.636992)"
       id="g4181"><path
         id="path4183"
         style="fill:#ffffff;fill-opacity:1;fill-rule:nonzero;stroke:none"
         d="m 0,0 c -0.553,0 -1.002,-0.449 -1.002,-1.002 l 0,-10.018 c 0,-0.675 -0.549,-1.224 -1.224,-1.224 l -6.679,0 c -0.675,0 -1.224,0.549 -1.224,1.224 l 0,10.018 c 0,0.553 -0.449,1.002 -1.002,1.002 -0.553,0 -1.002,-0.449 -1.002,-1.002 l 0,-10.018 c 0,-1.78 1.448,-3.229 3.228,-3.229 l 6.679,0 c 0.434,0 0.846,0.089 1.224,0.245 l 0,-11.487 c 0,-0.553 0.449,-1.002 1.002,-1.002 0.553,0 1.002,0.449 1.002,1.002 l 0,14.471 0,10.018 C 1.002,-0.449 0.553,0 0,0"
         inkscape:connector-curvature="0" /></g><g
       transform="matrix(1.171875,0,0,-1.171875,120.14656,119.89984)"
       id="g4185"><path
         id="path4187"
         style="fill:#ffffff;fill-opacity:1;fill-rule:nonzero;stroke:none"
         d="m 0,0 c 0,-0.675 -0.549,-1.224 -1.225,-1.224 l -6.678,0 c -0.675,0 -1.225,0.549 -1.225,1.224 l 0,20.036 c 0,0.675 0.55,1.224 1.225,1.224 l 6.678,0 C -0.549,21.26 0,20.711 0,20.036 L 0,0 Z m -1.225,23.264 -6.678,0 c -1.78,0 -3.228,-1.449 -3.228,-3.228 l 0,-20.036 c 0,-1.779 1.448,-3.228 3.228,-3.228 l 6.678,0 c 1.78,0 3.228,1.449 3.228,3.228 l 0,20.036 c 0,1.779 -1.448,3.228 -3.228,3.228"
         inkscape:connector-curvature="0" /></g><g
       id="text12356"
       style="font-style:normal;font-weight:normal;font-size:6.23370457px;line-height:125%;font-family:sans-serif;letter-spacing:0px;word-spacing:0px;fill:#ffffff;fill-opacity:1;stroke:none;stroke-width:1px;stroke-linecap:butt;stroke-linejoin:miter;stroke-opacity:1"
       transform="scale(0.89440542,1.1180612)"><path
         id="path12559"
         style="font-style:normal;font-variant:normal;font-weight:normal;font-stretch:normal;font-family:Pomeranian;-inkscape-font-specification:Pomeranian;fill:#ffffff;fill-opacity:1"
         d="m 144.32864,42.236568 q 0.94129,0.02493 1.50232,0.193245 0.56103,0.162076 0.81661,0.50493 0.26182,0.342854 0.26182,0.910121 0,0.492463 -0.26805,0.84155 -0.26182,0.349087 -0.68571,0.523631 -0.42389,0.174544 -0.89765,0.174544 -0.61714,0 -1.10337,-0.286751 -0.48623,-0.28675 -0.60467,-0.804147 -0.006,-0.0187 -0.006,-0.0561 0,-0.09974 0.0748,-0.162076 0.081,-0.06857 0.18701,-0.06857 l 0.28051,0 q 0.081,0 0.12468,0.04987 0.0499,0.04364 0.0873,0.130908 0.0873,0.211946 0.35532,0.330386 0.26805,0.11844 0.59844,0.11844 0.44882,0 0.77921,-0.205712 0.33039,-0.205712 0.33039,-0.585968 0,-0.349088 -0.19325,-0.529865 -0.19324,-0.180777 -0.68571,-0.255582 -0.48623,-0.08104 -1.42752,-0.08104 -0.11844,0 -0.19947,-0.0748 -0.0748,-0.0748 -0.0748,-0.180777 l 0,-2.013487 q 0,-0.105973 0.0748,-0.180777 0.0748,-0.0748 0.18077,-0.0748 l 0.49247,0 0,0.0374 q 0.0561,-0.0374 0.13714,-0.0374 l 1.67063,0 q 0.10597,0 0.18078,0.0748 0.0748,0.0748 0.0748,0.180777 l 0,0.236881 q 0,0.105973 -0.0748,0.180778 -0.0748,0.0748 -0.18078,0.0748 l -1.67063,0 q -0.081,0 -0.13714,-0.0374 l 0,1.072197 z" /><path
         sodipodi:nodetypes="cccsccscssccsccscsscccccccccccccscccc"
         inkscape:connector-curvature="0"
         id="path12561"
         style="font-style:normal;font-variant:normal;font-weight:normal;font-stretch:normal;font-family:Pomeranian;-inkscape-font-specification:Pomeranian;fill:#ffffff;fill-opacity:1"
         d="m 149.19716,42.866172 c 0,-0.432203 0.10597,-0.829082 0.31792,-1.190637 0.2161,-0.365711 0.50493,-0.654539 0.86648,-0.866485 0.36571,-0.216102 0.76467,-0.324153 1.19687,-0.324153 0.46961,0 0.89558,0.126752 1.27791,0.380256 0.38649,0.253504 0.67948,0.590124 0.87896,1.00986 0.0208,0.04156 0.0312,0.07896 0.0312,0.112207 0,0.05403 -0.0208,0.09766 -0.0623,0.130908 -0.0415,0.02909 -0.0976,0.04364 -0.16831,0.04364 l -0.39896,0 c -0.0665,0 -0.12257,-0.01455 -0.16831,-0.04364 -0.0457,-0.02909 -0.0873,-0.07481 -0.12467,-0.137142 -0.31584,-0.498696 -0.73766,-0.748044 -1.26545,-0.748044 -0.29506,0 -0.55895,0.07065 -0.79168,0.211946 -0.23272,0.141297 -0.4135,0.334542 -0.54233,0.579734 -0.12883,0.241037 -0.19324,0.511164 -0.19324,0.810382 0,0.299217 0.0644,0.577656 0.19324,0.835316 0.12883,0.253504 0.30961,0.45506 0.54233,0.604669 0.23273,0.149609 0.49662,0.224414 0.79168,0.224414 0.27429,0 0.51948,-0.06234 0.73558,-0.187011 0.2161,-0.12883 0.39064,-0.305452 0.52363,-0.529865 l -1.25379,-0.02918 c -0.079,0 -0.1413,-0.02078 -0.18701,-0.06234 -0.0415,-0.04156 -0.0644,-0.101819 -0.0686,-0.180777 l -0.006,-0.162076 c -0.004,-0.166232 0.077,-0.249348 0.24311,-0.249348 l 1.98314,0.01668 c 0.079,0 0.1413,0.02286 0.18701,0.06857 0.0499,0.04156 0.0727,0.09974 0.0686,0.174544 l -0.006,0.174544 c 0,0.108051 -0.008,0.180777 -0.0249,0.218179 -0.19948,0.448827 -0.49454,0.810382 -0.88519,1.084665 -0.38649,0.274283 -0.82285,0.411424 -1.30908,0.411424 -0.4322,0 -0.83116,-0.105973 -1.19687,-0.317919 -0.36155,-0.216101 -0.65038,-0.504929 -0.86648,-0.866484 -0.21195,-0.365711 -0.31792,-0.764668 -0.31792,-1.196872 z" /></g></g></svg>